<svg xmlns="http://www.w3.org/2000/svg" width="19" height="23" viewBox="0 0 19 23" fill="none">
  <path fill-rule="evenodd" clip-rule="evenodd" d="M0.795751 4.04479C1.12955 1.79836 2.92351 0 5.1994 0C6.56185 0 7.76608 0.656343 8.5728 1.66024C8.83535 1.98696 8.78272 2.46417 8.45523 2.72612C8.12775 2.98806 7.64943 2.93555 7.38688 2.60882C6.83757 1.92524 6.05316 1.51648 5.1994 1.51648C3.85593 1.51648 2.6458 2.55861 2.33621 4.05001C2.48619 4.06901 2.63199 4.13273 2.75214 4.24214C3.06216 4.52445 3.0841 5.00404 2.80115 5.31334L2.06125 6.12213C1.91725 6.27954 1.71351 6.36922 1.4999 6.36922C1.2863 6.36922 1.08256 6.27954 0.93856 6.12213L0.198661 5.31334C-0.0842969 5.00404 -0.0623575 4.52445 0.247664 4.24214C0.402966 4.10073 0.6011 4.03565 0.795751 4.04479ZM9.1401 3.23516C9.35371 3.23516 9.55745 3.32484 9.70145 3.48224L10.4413 4.29103C10.7243 4.60034 10.7024 5.07993 10.3923 5.36223C10.237 5.50365 10.0389 5.56873 9.84425 5.55959C9.51046 7.80601 7.7165 9.60438 5.44061 9.60438C4.17342 9.60438 3.04151 9.03605 2.2407 8.14793C1.95998 7.8366 1.98538 7.35718 2.29743 7.07711C2.60948 6.79704 3.09001 6.82238 3.37073 7.1337C3.91177 7.73372 4.64527 8.0879 5.44061 8.0879C6.78408 8.0879 7.99421 7.04577 8.3038 5.55437C8.15382 5.53536 8.00802 5.47164 7.88787 5.36223C7.57784 5.07993 7.5559 4.60034 7.83886 4.29103L8.57876 3.48224C8.72276 3.32484 8.9265 3.23516 9.1401 3.23516Z" fill="#f6f6f6"/>
  <path fill-rule="evenodd" clip-rule="evenodd" d="M19 10.8682V14.9121C19 18.7248 19 20.6311 17.8128 21.8156C16.6256 23 14.7149 23 10.8933 23C7.07182 23 5.16106 23 3.97386 21.8156C2.78667 20.6311 2.78667 18.7248 2.78667 14.9121V13.1799C2.78667 12.9114 2.78667 12.7772 2.81208 12.6661C2.89869 12.2875 3.19503 11.9918 3.57452 11.9054C3.68583 11.8801 3.82055 11.8801 4.09 11.8801C5.70361 11.8801 6.51042 11.8801 7.17709 11.7286C9.45605 11.2106 11.2357 9.43514 11.7548 7.16146C11.9067 6.49633 11.9067 5.69232 11.9067 4.08431C11.9067 3.81756 11.9067 3.68418 11.9326 3.57196C12.0204 3.19252 12.3301 2.88975 12.7121 2.80987C12.8251 2.78625 12.9546 2.78886 13.2135 2.7941C15.5447 2.84125 16.895 3.04902 17.8128 3.96471C19 5.14915 19 7.05549 19 10.8682ZM7.85334 19.2088C7.4336 19.2088 7.09334 19.5482 7.09334 19.967C7.09334 20.3858 7.4336 20.7252 7.85334 20.7252H13.9333C14.3531 20.7252 14.6933 20.3858 14.6933 19.967C14.6933 19.5482 14.3531 19.2088 13.9333 19.2088H7.85334Z" fill="#f6f6f6"/>
</svg>