<svg xmlns="http://www.w3.org/2000/svg" width="11" height="14" viewBox="0 0 11 14" fill="none">
  <circle cx="5.33317" cy="3.00016" r="2.66667" fill="white"/>
  <path fill-rule="evenodd" clip-rule="evenodd" d="M8.33333 13.6667C7.23339 13.6667 6.68342 13.6667 6.34171 13.325C6 12.9832 6 12.4333 6 11.3333C6 10.2334 6 9.68342 6.34171 9.34171C6.68342 9 7.23339 9 8.33333 9C9.43328 9 9.98325 9 10.325 9.34171C10.6667 9.68342 10.6667 10.2334 10.6667 11.3333C10.6667 12.4333 10.6667 12.9832 10.325 13.325C9.98325 13.6667 9.43328 13.6667 8.33333 13.6667ZM9.64536 10.8305C9.79723 10.6787 9.79723 10.4324 9.64536 10.2806C9.49349 10.1287 9.24726 10.1287 9.09538 10.2806L7.81481 11.5611L7.57128 11.3176C7.41941 11.1657 7.17318 11.1657 7.02131 11.3176C6.86944 11.4695 6.86944 11.7157 7.02131 11.8676L7.53983 12.3861C7.6917 12.538 7.93793 12.538 8.0898 12.3861L9.64536 10.8305Z" fill="white"/>
  <path opacity="0.5" d="M9.39633 9.02061C9.11312 8.99984 8.76566 8.99984 8.33317 8.99984C7.23323 8.99984 6.68325 8.99984 6.34155 9.34155C5.99984 9.68325 5.99984 10.2332 5.99984 11.3332C5.99984 12.1107 5.99984 12.6134 6.12054 12.962C5.86458 12.9869 5.60152 12.9998 5.33317 12.9998C2.75584 12.9998 0.666504 11.8059 0.666504 10.3332C0.666504 8.86041 2.75584 7.6665 5.33317 7.6665C7.07546 7.6665 8.59474 8.2121 9.39633 9.02061Z" fill="white"/>
</svg>