<svg xmlns="http://www.w3.org/2000/svg" width="12" height="14" viewBox="0 0 12 14" fill="none">
  <path d="M8.66683 3.00016C8.66683 4.47292 7.47292 5.66683 6.00016 5.66683C4.5274 5.66683 3.3335 4.47292 3.3335 3.00016C3.3335 1.5274 4.5274 0.333496 6.00016 0.333496C7.47292 0.333496 8.66683 1.5274 8.66683 3.00016Z" fill="white"/>
  <path opacity="0.5" d="M7.65143 13.6137C7.16734 13.6484 6.6196 13.6665 5.99984 13.6665C0.666504 13.6665 0.666504 12.3234 0.666504 10.6665C0.666504 9.00965 3.05432 7.6665 5.99984 7.6665C7.92024 7.6665 9.60357 8.23743 10.5427 9.094C10.1985 8.99984 9.71562 8.99984 8.99984 8.99984C7.89989 8.99984 7.34992 8.99984 7.00821 9.34155C6.6665 9.68325 6.6665 10.2332 6.6665 11.3332C6.6665 12.4331 6.6665 12.9831 7.00821 13.3248C7.16656 13.4831 7.36963 13.5681 7.65143 13.6137Z" fill="white"/>
  <path fill-rule="evenodd" clip-rule="evenodd" d="M8.99984 13.6667C7.89989 13.6667 7.34992 13.6667 7.00821 13.325C6.6665 12.9832 6.6665 12.4333 6.6665 11.3333C6.6665 10.2334 6.6665 9.68342 7.00821 9.34171C7.34992 9 7.89989 9 8.99984 9C10.0998 9 10.6498 9 10.9915 9.34171C11.3332 9.68342 11.3332 10.2334 11.3332 11.3333C11.3332 12.4333 11.3332 12.9832 10.9915 13.325C10.6498 13.6667 10.0998 13.6667 8.99984 13.6667ZM8.23779 10.0213C8.08592 9.86944 7.83968 9.86944 7.68781 10.0213C7.53594 10.1732 7.53594 10.4194 7.68781 10.5713L8.44986 11.3333L7.68781 12.0954C7.53594 12.2473 7.53594 12.4935 7.68781 12.6454C7.83968 12.7972 8.08592 12.7972 8.23779 12.6454L8.99984 11.8833L9.76189 12.6454C9.91376 12.7972 10.16 12.7972 10.3119 12.6454C10.4637 12.4935 10.4637 12.2473 10.3119 12.0954L9.54981 11.3333L10.3119 10.5713C10.4637 10.4194 10.4637 10.1732 10.3119 10.0213C10.16 9.86944 9.91376 9.86944 9.76189 10.0213L8.99984 10.7834L8.23779 10.0213Z" fill="white"/>
</svg>